<?xml version="1.0" encoding="utf-8"?>
<!-- Generator: Adobe Illustrator 17.0.0, SVG Export Plug-In . SVG Version: 6.00 Build 0)  -->
<!DOCTYPE svg PUBLIC "-//W3C//DTD SVG 1.1//EN" "http://www.w3.org/Graphics/SVG/1.1/DTD/svg11.dtd">
<svg version="1.1" id="Layer_1" xmlns="http://www.w3.org/2000/svg" xmlns:xlink="http://www.w3.org/1999/xlink" x="0px" y="0px"
	 width="181px" height="50px" viewBox="0 0 181 50" enable-background="new 0 0 181 50" xml:space="preserve">
<g>
	<path fill="#E21F26" d="M48.883,36.167H31.962c-0.052,1.383-1.027,2.233-2.285,2.233h-4.243c-1.304,0-2.305-1.219-2.287-2.233H6.45
		c-0.614,0-1.117,0.503-1.117,1.117V38.4c0,2.457,2.01,4.467,4.467,4.467h35.733c2.457,0,4.467-2.01,4.467-4.467v-1.117
		C50,36.669,49.498,36.167,48.883,36.167z M45.533,10.483c0-1.842-1.507-3.35-3.35-3.35H13.15c-1.843,0-3.35,1.508-3.35,3.35v23.45
		h35.733V10.483z M41.067,29.467h-26.8V11.6h26.8V29.467z"/>
	<g>
		<path d="M59.163,13.137v23.953c0,0.66-0.754,1.207-1.301,1.207c-0.868,0-1.528-0.585-1.528-1.414V13.175
			c0-0.736,0.604-1.471,1.32-1.471C58.578,11.704,59.163,12.458,59.163,13.137z"/>
		<path d="M63.31,28.207c0-5.168,4.092-9.657,9.298-9.657c4.79,0,8.845,3.941,8.845,8.845c0,1.17-0.339,2.113-1.452,2.113h-13.73
			c0.584,3.13,3.263,5.846,6.771,5.846c1.98,0,4.036-0.942,5.281-2.471c0.226-0.302,0.735-0.547,1.113-0.547
			c0.773,0,1.415,0.642,1.415,1.415c0,0.282-0.151,0.697-0.339,0.924c-1.811,2.226-4.583,3.508-7.431,3.508
			C67.61,38.183,63.31,33.638,63.31,28.207z M72.626,21.379c-3.225,0-5.695,2.452-6.318,5.337h12.259
			C78.209,23.774,75.719,21.379,72.626,21.379z"/>
		<path d="M102.719,19.927c0,0.32-0.188,0.754-0.396,0.98l-6.847,7.394l6.94,7.524c0.208,0.227,0.396,0.66,0.396,0.98
			c0,0.773-0.642,1.415-1.415,1.415c-0.339,0-0.829-0.208-1.056-0.472l-6.791-7.355l-6.808,7.337
			c-0.226,0.264-0.717,0.472-1.056,0.472c-0.773,0-1.415-0.642-1.415-1.415c0-0.32,0.189-0.754,0.396-0.98l6.94-7.506l-6.846-7.413
			c-0.208-0.226-0.396-0.66-0.396-0.98c0-0.773,0.642-1.415,1.415-1.415c0.377,0,0.83,0.208,1.056,0.472l6.714,7.261l6.696-7.243
			c0.227-0.264,0.717-0.49,1.057-0.49C102.096,18.493,102.719,19.153,102.719,19.927z"/>
		<path d="M110.349,13.118c0.773,0,1.415,0.641,1.415,1.415l-0.019,4.225l3.677,0.019c0.736,0,1.32,0.585,1.32,1.32
			c0,0.736-0.584,1.32-1.32,1.32l-3.677-0.019l-0.02,11.769c0,1.339,0.283,2.226,1.527,2.226c1.095,0,1.66-0.622,2.604-0.622
			c0.772,0,1.414,0.641,1.414,1.414c0,1.584-2.489,2.056-3.904,2.056c-2.979,0-4.47-2.093-4.47-5.11l0.02-11.713h-2.905
			c-0.735,0-1.319-0.584-1.319-1.32c0-0.735,0.584-1.32,1.319-1.32h2.905l0.019-4.243C108.935,13.759,109.557,13.118,110.349,13.118
			z"/>
		<path d="M120.094,28.207c0-5.168,4.093-9.657,9.298-9.657c4.791,0,8.846,3.941,8.846,8.845c0,1.17-0.34,2.113-1.452,2.113h-13.73
			c0.585,3.13,3.263,5.846,6.771,5.846c1.98,0,4.036-0.942,5.281-2.471c0.227-0.302,0.735-0.547,1.112-0.547
			c0.773,0,1.415,0.642,1.415,1.415c0,0.282-0.151,0.697-0.34,0.924c-1.811,2.226-4.583,3.508-7.431,3.508
			C124.394,38.183,120.094,33.638,120.094,28.207z M129.412,21.379c-3.226,0-5.696,2.452-6.318,5.337h12.259
			C134.994,23.774,132.505,21.379,129.412,21.379z"/>
		<path d="M151.318,18.55c3.847,0,6.752,2.395,8.015,5.167c0.076,0.151,0.151,0.434,0.151,0.604c0,0.773-0.642,1.396-1.414,1.396
			c-0.51,0-1.075-0.358-1.283-0.83c-0.867-1.886-2.848-3.527-5.469-3.527c-3.659,0-6.507,3.282-6.507,6.979
			c0,3.696,2.829,6.979,6.507,6.979c2.621,0,4.62-1.622,5.488-3.508c0.207-0.472,0.772-0.849,1.282-0.849
			c0.773,0,1.414,0.641,1.414,1.414c0,0.17-0.057,0.434-0.132,0.585c-1.264,2.772-4.206,5.167-8.053,5.167
			c-5.263,0-9.317-4.563-9.317-9.807C142.001,23.095,146.094,18.55,151.318,18.55z"/>
	</g>
	<circle fill="#E21F26" cx="170.561" cy="28.338" r="4.894"/>
</g>
</svg>
